<?xml version="1.0" encoding="UTF-8"?>
<svg width="199px" height="26px" viewBox="0 0 199 26" version="1.1" xmlns="http://www.w3.org/2000/svg" xmlns:xlink="http://www.w3.org/1999/xlink">
    <title>logo</title>
    <g id="Page-1" stroke="none" stroke-width="1" fill="none" fill-rule="evenodd">
        <g id="logo" fill="#230B59">
            <path d="M20.3395,2.02368 C20.4672,2.02804 20.5825,2.03634 20.6835,2.04896 C20.9453,2.0816 20.9055,2.3165 20.8465,2.66794 C19.383,11.3945 18.7352,20.7963 23.8928,25.2914 C23.947,25.3413 24.022,25.4459 23.9967,25.4847 C23.9717,25.5235 23.8199,25.5026 23.7577,25.4987 C21.2187,25.341 10.9796,21.2702 11.4143,3.80154 C11.4212,3.52158 11.4586,3.39356 11.8731,3.27266 C13.2591,2.86856 17.6405,2.08386 19.8536,2.02368 L20.3395,2.02368 Z M3.97705,10.8212 C4.21868,10.6507 6.95834,9.30088 9.47703,8.40028 C9.98137,8.23975 9.97814,8.76152 10.0022,8.89853 C12.3555,22.3067 18.1072,23.994 19.7248,25.32 C19.9423,25.4646 19.6637,25.5185 19.3878,25.505 C7.75831,25.5418 4.25655,14.8466 3.61278,11.3403 C3.5534,11.0169 3.73542,10.9916 3.97705,10.8212 Z M0.256255,19.3266 C0.852336,18.5974 2.58689,17.1341 3.30884,16.6552 C3.52775,16.5102 3.68622,16.8451 3.8797,17.3015 C4.65947,18.9735 5.82164,20.7328 6.96424,21.8907 C9.24791,24.205 11.7455,25.0885 11.8725,25.1919 C12.0672,25.3508 12.0655,25.4768 11.6922,25.4906 C3.79057,25.7841 0.561252,22.0458 0.0219091,19.8804 C-0.0363513,19.6465 0.0149526,19.6217 0.256255,19.3266 Z" id="Shape"></path>
            <polygon id="Path" fill-rule="nonzero" points="42.5263 1.73878 39.056 15.6876 35.9145 1.73878 29.9236 1.73878 35.8049 25.4634 41.1747 25.4634 44.6815 11.5532 48.1518 25.4634 53.5216 25.4634 59.4394 1.73878 53.5216 1.73878 50.4166 15.6876 46.9829 1.73878"></polygon>
            <path d="M68.0131,19.397 C67.6843,20.5948 66.7711,21.1358 65.6022,21.1358 C63.9583,21.1358 62.9355,20.0153 62.7529,17.9287 L73.3829,17.9287 L73.3829,16.4218 C73.3829,11.2441 70.5336,7.68926 65.4926,7.68926 C60.7438,7.68926 57.2369,11.3987 57.2369,16.7695 C57.2369,22.1791 60.5611,25.8498 65.6022,25.8498 C69.8761,25.8498 72.7254,23.4155 73.3099,19.397 L68.0131,19.397 Z M65.4926,12.4033 C66.9172,12.4033 67.7574,13.4852 67.8305,14.9148 L62.8625,14.9148 C63.2278,13.292 64.141,12.4033 65.4926,12.4033 Z" id="Shape" fill-rule="nonzero"></path>
            <path d="M89.6452,25.4634 L89.6452,14.7989 C89.6452,10.2781 86.9786,7.65062 82.3028,7.65062 C78.0654,7.65062 75.2526,10.3167 74.7778,13.6784 L80.1841,13.6784 C80.4398,12.9056 81.0608,12.4033 82.1202,12.4033 C83.5083,12.4033 84.1293,13.3693 84.1293,14.4898 L84.1293,15.6104 C83.4718,15.108 81.8645,14.6444 80.5129,14.6444 C76.933,14.6444 74.1933,16.8082 74.1933,20.1698 C74.1933,23.8406 76.933,25.7725 80.1841,25.7725 C81.9375,25.7725 83.5813,25.1543 84.1293,24.5747 L84.1293,25.4634 L89.6452,25.4634 Z M84.1293,20.5948 C83.764,21.2904 82.7777,21.754 81.7183,21.754 C80.5859,21.754 79.4535,21.2517 79.4535,20.0539 C79.4535,18.8947 80.5859,18.3924 81.7183,18.3924 C82.7777,18.3924 83.764,18.8561 84.1293,19.5902 L84.1293,20.5948 Z" id="Shape" fill-rule="nonzero"></path>
            <polygon id="Path" fill-rule="nonzero" points="96.9906 0.347755 91.2555 0.347755 91.2555 25.4634 96.9906 25.4634 96.9906 12.9056"></polygon>
            <path d="M100.64,19.4743 C100.64,23.8792 102.832,25.8112 106.704,25.8112 C107.982,25.8112 109.224,25.5793 109.882,25.2702 L109.882,20.1312 C109.37,20.363 108.676,20.5176 108.055,20.5176 C106.923,20.5176 106.302,19.938 106.302,18.5856 L106.302,12.7897 L109.736,12.7897 L109.736,8.07565 L106.302,8.07565 L106.302,3.28436 L100.64,3.28436 L100.64,8.07565 L98.229,8.07565 L98.229,12.7897 L100.64,12.7897 L100.64,19.4743 Z" id="Path" fill-rule="nonzero"></path>
            <path d="M111.036,25.4634 L116.771,25.4634 L116.771,14.9535 C117.063,13.7557 118.013,13.0601 119.145,13.0601 C120.606,13.0601 121.3,14.1034 121.3,15.5331 L121.3,25.4634 L126.999,25.4634 L126.999,14.0648 C126.999,10.2008 124.844,7.68926 121.191,7.68926 C119.291,7.68926 117.684,8.50069 116.771,9.58259 L116.771,0.347755 L111.036,0.347755 L111.036,25.4634 Z" id="Path" fill-rule="nonzero"></path>
            <path d="M139.422,0.463675 C138.728,0.193197 137.851,0 136.756,0 C132.737,0 130.363,2.62749 130.363,6.80055 L130.363,8.07565 L127.916,8.07565 L127.916,12.7897 L130.363,12.7897 L130.363,25.4634 L136.025,25.4634 L136.025,12.7897 L139.203,12.7897 L139.203,8.07565 L136.025,8.07565 L136.025,7.1483 C136.025,5.75728 136.792,5.06177 138.071,5.06177 C138.582,5.06177 139.02,5.17769 139.422,5.40953 L139.422,0.463675 Z" id="Path" fill-rule="nonzero"></path>
            <path d="M151.356,7.99837 C151.101,7.84382 150.516,7.68926 149.786,7.68926 C148.142,7.68926 146.863,8.46205 146.06,9.62123 L146.06,8.07565 L140.325,8.07565 L140.325,25.4634 L146.06,25.4634 L146.06,15.2626 C146.352,14.0261 147.411,13.292 148.982,13.292 C149.895,13.292 150.662,13.4465 151.356,13.8329 L151.356,7.99837 Z" id="Path" fill-rule="nonzero"></path>
            <path d="M169.017,16.7695 C169.017,11.3987 165.314,7.68926 160.309,7.68926 C155.341,7.68926 151.908,11.3987 151.908,16.7695 C151.908,22.1404 155.647,25.8498 160.615,25.8498 C165.619,25.8498 169.017,22.1404 169.017,16.7695 Z M163.086,16.7695 C163.086,19.1652 162.099,20.8267 160.309,20.8267 C158.556,20.8267 157.57,19.1652 157.57,16.7695 C157.57,14.3739 158.556,12.6738 160.309,12.6738 C162.099,12.6738 163.086,14.3739 163.086,16.7695 Z" id="Shape" fill-rule="nonzero"></path>
            <path d="M170.254,25.4634 L175.989,25.4634 L175.989,14.9535 C176.282,13.7557 177.231,13.0601 178.364,13.0601 C179.825,13.0601 180.519,14.1034 180.519,15.5331 L180.519,25.4634 L186.218,25.4634 L186.218,14.0648 C186.218,10.2008 184.062,7.68926 180.409,7.68926 C178.51,7.68926 176.903,8.50069 175.989,9.58259 L175.989,8.07565 L170.254,8.07565 L170.254,25.4634 Z" id="Path" fill-rule="nonzero"></path>
            <path d="M189.266,19.4743 C189.266,23.8792 191.458,25.8112 195.33,25.8112 C196.609,25.8112 197.851,25.5793 198.508,25.2702 L198.508,20.1312 C197.997,20.363 197.303,20.5176 196.682,20.5176 C195.549,20.5176 194.928,19.938 194.928,18.5856 L194.928,12.7897 L198.362,12.7897 L198.362,8.07565 L194.928,8.07565 L194.928,3.28436 L189.266,3.28436 L189.266,8.07565 L186.855,8.07565 L186.855,12.7897 L189.266,12.7897 L189.266,19.4743 Z" id="Path" fill-rule="nonzero"></path>
        </g>
    </g>
</svg>