<?xml version="1.0" encoding="UTF-8"?>
<svg width="136px" height="21px" viewBox="0 0 136 21" version="1.1" xmlns="http://www.w3.org/2000/svg" xmlns:xlink="http://www.w3.org/1999/xlink">
    <title>investopedia</title>
    <g id="Page-1" stroke="none" stroke-width="1" fill="none" fill-rule="evenodd">
        <g id="Artboard" transform="translate(-837.000000, -396.000000)" fill-rule="nonzero">
            <g id="investopedia" transform="translate(837.000000, 396.000000)">
                <path d="M8.18365217,5.95384615 L9.68083478,6.87692308 L9.10845217,12.1546154 L17.1643826,7.36153846 C16.7690529,4.28200566 14.6473609,1.67426221 11.6630583,0.599933768 C8.67875577,-0.474394674 5.32954292,0.163860597 2.97890144,2.2548626 C0.628259965,4.34586461 -0.33178722,7.54089121 0.4896,10.5392308 L8.18365217,5.95384615 L8.18365217,5.95384615 Z" id="Path" fill="#735279"></path>
                <path d="M8.42963478,14.8176923 L6.93245217,13.8946154 L7.50483478,8.61923077 L1.20389565,12.3715385 C2.93092876,15.5693823 6.57902441,17.3107059 10.2266132,16.6782981 C13.8742019,16.0458903 16.6840859,13.1849019 17.1762087,9.60230769 L8.42963478,14.8176923 Z" id="Path" fill="#735279"></path>
                <ellipse id="Oval" fill="#FFFFFF" cx="9.1794087" cy="4.02" rx="1.20389565" ry="1.17461538"></ellipse>
                <path d="M21.4998261,16.1538462 L23.6143304,16.1238462 L23.6143304,1.54384615 L21.4998261,1.57384615 L21.4998261,16.1538462 Z M31.6134957,6.02307692 C30.6674087,6.02307692 29.0566957,6.43384615 28.3424,7.54846154 L28.3424,6.23076923 L26.3461565,6.23076923 L26.3461565,16.1538462 L28.3424,16.1538462 L28.3424,10.7838462 C28.3424,8.82692308 29.8561391,7.95 31.355687,7.95 C32.7748174,7.95 33.7209043,8.98846154 33.7209043,10.5323077 L33.7209043,16.1538462 L35.7147826,16.1538462 L35.7147826,10.4284615 C35.7147826,9.01846154 35.3174261,7.86461538 34.5321739,7.09384615 C33.8226087,6.39230769 32.8126609,6.02307692 31.6134957,6.02307692 Z M41.7177043,13.6015385 L38.6642087,6.23307692 L36.5284174,6.23307692 L40.7526957,16.1538462 L42.6637913,16.1538462 L46.9093565,6.23307692 L44.7522783,6.23307692 L41.7177043,13.6015385 Z M78.9722435,6.02307692 C75.8974609,6.02307692 73.6623304,8.18307692 73.6623304,11.1623077 C73.6623304,14.1415385 75.9471304,16.3638462 78.9722435,16.3638462 C80.3971328,16.3990431 81.7744428,15.8624131 82.782538,14.8792722 C83.7906332,13.8961313 84.341251,12.5525573 84.3058087,11.1623077 C84.3058087,8.18307692 82.0730435,6.02307692 78.9722435,6.02307692 L78.9722435,6.02307692 Z M78.9722435,14.5223077 C77.106087,14.5223077 75.6869565,13.0776923 75.6869565,11.1623077 C75.6869565,9.28153846 77.106087,7.86461538 78.9793391,7.86461538 C79.8750638,7.85229466 80.7371005,8.19738365 81.3658304,8.81997136 C81.9945604,9.44255907 82.3354516,10.2886463 82.3095652,11.1623077 C82.3095652,13.0776923 80.8738783,14.5223077 78.9722435,14.5223077 Z M91.1980522,6.02307692 C89.7245217,6.02307692 88.3763478,6.64846154 87.6904348,7.63846154 L87.6904348,6.23076923 L85.6941913,6.23076923 L85.6941913,20.9169231 L87.6904348,20.9169231 L87.6904348,14.7692308 C88.3716174,15.7684615 89.6701217,16.3569231 91.2193391,16.3569231 C94.1593043,16.3569231 96.2927304,14.1876923 96.2927304,11.1969231 C96.2927304,8.20615385 94.1498435,6.02307692 91.1980522,6.02307692 Z M91.0253913,14.5223221 C90.1322689,14.5249035 89.2756155,14.1768765 88.6483204,13.5565907 C88.0210253,12.9363048 87.6758206,12.0959031 87.6904348,11.2246154 C87.6904348,9.30923077 89.1237565,7.86461538 91.0253913,7.86461538 C92.8489739,7.86461538 94.2752,9.34153846 94.2752,11.2246154 C94.2752,13.1076923 92.8773565,14.5223221 91.0253913,14.5223221 Z M117.113739,7.61538462 C116.432557,6.61615385 115.134052,6.02769231 113.584835,6.02769231 C110.64487,6.02769231 108.511443,8.19692308 108.511443,11.1876923 C108.511443,14.1784615 110.65433,16.3684615 113.606122,16.3684615 C115.079652,16.3684615 116.427826,15.7430769 117.113739,14.7530769 L117.113739,16.1538462 L119.109983,16.1538462 L119.109983,0.881538462 L117.113739,0.881538462 L117.113739,7.61538462 Z M113.766957,14.5223077 C111.9552,14.5223077 110.538435,13.0453846 110.538435,11.1623077 C110.538435,9.27923077 111.917357,7.86461538 113.766957,7.86461538 C114.662968,7.85895552 115.523622,8.20532313 116.154983,8.82566951 C116.786344,9.44601589 117.135293,10.2881493 117.1232,11.1623077 C117.113739,12.7915385 115.938226,14.5223077 113.766957,14.5223077 Z M121.636035,6.23307692 L123.632278,6.23307692 L123.632278,16.1538462 L121.636035,16.1538462 L121.636035,6.23307692 Z M135.84153,6.23076923 L133.845287,6.23076923 L133.845287,7.38461538 C133.135722,6.52153846 131.912904,6.01846154 130.484313,6.01846154 L130.323478,6.01846154 C127.383513,6.01846154 125.250087,8.18769231 125.250087,11.1784615 C125.250087,14.1692308 127.392974,16.3592308 130.344765,16.3592308 L130.512696,16.3592308 C131.872696,16.3592308 133.128626,15.8238462 133.852383,14.9746154 L133.852383,16.1538462 L136,16.1538462 L136,6.23076923 L135.84153,6.23076923 Z M130.574191,14.5153846 C128.802643,14.4692308 127.428452,13.0153846 127.428452,11.16 C127.428452,9.30461538 128.776626,7.90846154 130.574191,7.86692308 C132.407944,7.89853846 133.870358,9.37061538 133.845287,11.16 C133.845287,12.7684615 132.688696,14.4715385 130.574191,14.5176923 L130.574191,14.5153846 L130.574191,14.5153846 Z M62.2809043,10.0892308 C61.2378435,9.82846154 60.4998957,9.59538462 60.4998957,8.96076923 C60.4998957,8.24769231 61.2378435,7.74923077 62.2974609,7.74923077 C63.0659685,7.76427149 63.8081027,8.02536357 64.4096,8.49230769 L64.4592696,8.52923077 L65.530713,7.08 L65.4834087,7.04307692 C64.5389645,6.32548226 63.368759,5.94952208 62.1721043,5.97923077 C60.3721739,5.97923077 58.4350609,6.94615385 58.4350609,9.06461538 C58.4350609,10.5415385 59.698087,11.2615385 60.7553391,11.6030769 C61.1101217,11.7184615 61.4649043,11.8084615 61.8244174,11.8961538 C62.9289739,12.1730769 63.8845217,12.4130769 63.8845217,13.2530769 C63.8845217,13.8415385 63.2766609,14.4646154 62.1508174,14.4646154 C61.0841139,14.4357165 60.0568025,14.0651155 59.2274087,13.41 L59.1753739,13.3730769 L58.1062957,14.8638462 L58.1512348,14.8984615 C59.2998822,15.7878499 60.7295901,16.2601702 62.1957565,16.2346154 C64.0169739,16.2346154 65.954087,15.1753846 65.954087,13.2115385 C65.954087,11.2476923 64.0973913,10.5438462 62.2809043,10.0892308 L62.2809043,10.0892308 Z M107.212939,11.0238462 C107.212939,8.06307692 105.252174,6 102.413913,6 C99.5449043,6 97.463513,8.11615385 97.463513,11.0284615 C97.4247721,12.4379186 97.9715466,13.802819 98.9796174,14.8130769 C99.8732623,15.6620679 101.074414,16.132336 102.32167,16.1215385 L102.416278,16.1215385 C104.173635,16.0915385 105.320765,15.8076923 106.713878,14.34 L106.756452,14.2961538 L105.3728,13.0107692 L105.330226,13.0569231 C104.621727,13.8687021 103.57748,14.3277349 102.48487,14.3076923 C100.942748,14.3076923 99.7270261,13.2046154 99.4408348,11.5546154 L107.144348,11.5384615 L107.201113,11.5384615 L107.201113,11.4830769 C107.208652,11.3932272 107.208652,11.3029266 107.201113,11.2130769 C107.215304,11.1761538 107.212939,11.1253846 107.212939,11.0238462 L107.212939,11.0238462 Z M99.7459478,10.0223077 C100.008487,8.58923077 100.97113,7.8 102.463583,7.8 C103.90873,7.8 104.892661,8.62846154 105.110261,10.0223077 L99.7459478,10.0223077 Z M57.0017391,11.0238462 C57.0017391,8.06307692 55.0267826,6 52.2074435,6 C49.3384348,6 47.2570435,8.11615385 47.2570435,11.0284615 C47.2183025,12.4379186 47.7650771,13.802819 48.7731478,14.8130769 C49.6667927,15.6620679 50.8679441,16.132336 52.1152,16.1215385 L52.2074435,16.1215385 C53.9671652,16.0915385 55.1142957,15.8076923 56.5074087,14.34 L56.5499826,14.2961538 L55.1663304,13.0107692 L55.1237565,13.0569231 C54.4136729,13.8705994 53.3663807,14.3298256 52.2713043,14.3076923 C50.7268174,14.3076923 49.5134609,13.2046154 49.2272696,11.5546154 L56.9284174,11.5384615 L56.9875478,11.5384615 L56.9875478,11.4830769 C56.9937934,11.3931801 56.9937934,11.3029738 56.9875478,11.2130769 C57.0017391,11.1761538 57.0017391,11.1253846 57.0017391,11.0238462 L57.0017391,11.0238462 Z M49.5276522,10.0223077 C49.7925565,8.58923077 50.7552,7.8 52.2476522,7.8 C53.6928,7.8 54.6767304,8.62846154 54.8943304,10.0223077 L49.5276522,10.0223077 Z M72.493913,14.0930769 C72.2194331,14.1646899 71.9359578,14.1980972 71.6518957,14.1923077 C71.1917048,14.2130738 70.7434541,14.0458277 70.414887,13.7307692 C70.197287,13.4815385 70.1523478,13.0984615 70.1523478,12.6023077 L70.1523478,7.92692308 L72.9906087,7.92692308 L72.9906087,6.23076923 L70.1523478,6.23076923 L70.1523478,3.01846154 L68.1537391,3.01846154 L68.1537391,6.23076923 L67.0562783,6.23076923 L67.0562783,7.92692308 L68.1537391,7.92692308 L68.1537391,12.5007692 C68.1537391,13.6015385 68.4044522,14.4115385 68.9200696,14.9746154 C69.6012965,15.7083542 70.5812837,16.1090761 71.5951304,16.0684615 C72.0965565,16.0730769 72.596327,16.0061538 73.0781217,15.87 L73.1372522,15.8515385 L72.5530435,14.0769231 L72.493913,14.0930769 L72.493913,14.0930769 Z M122.634157,1.47923077 C122.291497,1.47855294 121.962983,1.61249065 121.722696,1.85084096 C121.482409,2.08919128 121.350581,2.41188467 121.356939,2.74615385 C121.351782,3.07817128 121.484689,3.39806715 121.725341,3.63286588 C121.965993,3.86766462 122.293863,3.99733913 122.634157,3.99230769 C122.97757,3.99976989 123.309538,3.87170586 123.554864,3.63712467 C123.800191,3.40254349 123.938114,3.08129695 123.9374,2.74615385 C123.938664,2.4089643 123.801616,2.08529364 123.556798,1.84729691 C123.31198,1.60930019 122.979744,1.47676273 122.634157,1.47923077 L122.634157,1.47923077 Z" id="Shape" fill="#735279"></path>
            </g>
        </g>
    </g>
</svg>