<?xml version="1.0" encoding="UTF-8"?>
<svg width="133px" height="22px" viewBox="0 0 133 22" version="1.1" xmlns="http://www.w3.org/2000/svg" xmlns:xlink="http://www.w3.org/1999/xlink">
    <title>nerdwallet</title>
    <g id="Page-1" stroke="none" stroke-width="1" fill="none" fill-rule="evenodd">
        <g id="Artboard" transform="translate(-853.000000, -300.000000)" fill="#735279">
            <g id="nerdwallet" transform="translate(853.000000, 300.000000)">
                <path d="M14.242,0 L20.232,0 C20.494,0 20.694,0.203 20.679,0.453 L20.679,20.563 C20.679,20.813 20.479,21.016 20.232,21.016 L14.058,21.016 C13.9835229,21.0154534 13.9099706,20.999449 13.842,20.969 C13.834,20.969 13.827,20.965 13.819,20.961 C13.811,20.957 13.804,20.953 13.796,20.953 C13.7275158,20.9224404 13.6649054,20.8801361 13.611,20.828 L6.898,14.016 L6.898,20.546 C6.898,20.796 6.698,21 6.451,21 L0.461,21 C0.339770405,20.9959715 0.224628942,20.94591 0.139,20.86 C0.0466670663,20.7755992 -0.00411915156,20.6550276 0,20.53 L0,0.453 C0,0.203 0.2,0 0.447,0 L6.637,0 C6.713,0 6.79,0.016 6.852,0.047 C6.859,0.047 6.867,0.051 6.875,0.055 C6.883,0.059 6.89,0.062 6.898,0.062 C6.96,0.094 7.021,0.125 7.083,0.188 L13.796,6.984 L13.796,0.454 C13.796,0.204 13.996,0 14.242,0 Z M65.407,3.203 L68.147,3.203 C68.301,3.203 68.4400068,3.343 68.4400068,3.5 L68.4400068,17.156 C68.4405322,17.2342394 68.4099613,17.3094856 68.3550127,17.3651843 C68.3000642,17.420883 68.2252394,17.4524714 68.147,17.453 L66.1,17.453 C65.9221428,17.4595824 65.7629557,17.3433965 65.715,17.172 L65.499,16.5 C65.191,16.78 64.806,17.03 64.329,17.28 C63.775,17.562 63.097,17.718 62.312,17.734 C62.22,17.75 62.127,17.75 62.035,17.75 C61.265,17.75 60.603,17.593 60.002,17.297 C59.4192045,17.0073838 58.904789,16.5969424 58.493,16.093 C58.0727388,15.579865 57.7540602,14.9913788 57.554,14.359 C57.3381697,13.6926804 57.2291545,12.9964007 57.230977,12.296 C57.230977,11.578 57.354,10.906 57.57,10.25 C57.7814642,9.62373461 58.1046883,9.04098254 58.524,8.53 C58.924,8.03 59.433,7.64 60.018,7.359 C60.603,7.062 61.265,6.921 61.988,6.921 C62.728,6.921 63.359,7.078 63.868,7.359 C64.391,7.64 64.791,7.953 65.068,8.296 L65.114,8.296 L65.114,3.5 C65.114,3.328 65.253,3.203 65.407,3.203 Z M61.034,14.109 C61.234,14.359 61.496,14.547 61.789,14.703 C62.096,14.859 62.435,14.937 62.82,14.937 C63.205,14.937 63.544,14.875 63.836,14.718 C64.129,14.578 64.376,14.375 64.591,14.125 C64.8076108,13.8776501 64.9749466,13.5911767 65.084,13.281 C65.191,12.968 65.253,12.641 65.253,12.312 C65.253,11.984 65.191,11.656 65.083,11.343 C64.9681232,11.0360703 64.8017375,10.7509825 64.591,10.5 C64.391,10.25 64.129,10.062 63.836,9.906 C63.5177087,9.7587254 63.1706989,9.68392702 62.82,9.687 C62.435,9.687 62.081,9.75 61.788,9.906 C61.481,10.046 61.234,10.25 61.034,10.484 C60.819,10.718 60.68,11 60.572,11.312 C60.464,11.625 60.418,11.952 60.418,12.281 C60.418,12.609 60.464,12.921 60.572,13.25 C60.68,13.578 60.834,13.859 61.034,14.109 L61.034,14.109 Z M127.057,7.312 L124.979,7.312 L124.717,4.968 C124.695057,4.76351466 124.522659,4.60835695 124.317,4.608 L122.007,4.608 C121.928586,4.60852756 121.853608,4.64025344 121.798631,4.696169 C121.743654,4.75208456 121.713201,4.82758811 121.713985,4.906 L121.713985,7.296 L121.73,14.125 C121.73,14.671 121.791,15.171 121.915,15.625 C122.038,16.078 122.238,16.453 122.515,16.781 C122.792,17.109 123.162,17.359 123.624,17.515 C124.086,17.687 124.655,17.765 125.317,17.765 C125.672,17.765 126.026,17.734 126.364,17.671 C126.611,17.625 126.842,17.578 127.026,17.531 C127.151738,17.4946994 127.239256,17.3808445 127.242,17.25 L127.211,15.39 C127.211,15.203 127.042,15.078 126.857,15.109 C126.838795,15.1100256 126.820721,15.1127032 126.803,15.117 C126.612811,15.153348 126.419631,15.1717622 126.226,15.172 C125.748,15.172 125.425,15.046 125.24,14.812 C125.056,14.578 124.963,14.202 124.963,13.734 L124.963,9.812 L127.042,9.812 C127.120149,9.81147245 127.194872,9.77985193 127.249662,9.7241239 C127.304452,9.66839587 127.334799,9.59314667 127.334,9.515 L127.334,7.61 C127.340824,7.53283452 127.314543,7.45640344 127.261706,7.39975206 C127.20887,7.34310068 127.134453,7.31156385 127.057,7.313 L127.057,7.312 Z M36.877,8.25 C36.5711644,7.85262547 36.1820596,7.52700624 35.737,7.296 C35.275,7.062 34.721,6.937 34.074,6.921 L33.905,6.921 C33.15,6.937 32.519,7.078 31.98,7.343 C31.503,7.593 31.102,7.859 30.81,8.14 L30.61,7.484 C30.5620443,7.31260345 30.4028572,7.19641755 30.225,7.203 L28.007,7.203 C27.928851,7.20352755 27.8541279,7.23514807 27.799338,7.2908761 C27.7445482,7.34660413 27.7142008,7.42185333 27.7149846,7.5 L27.7149846,17.14 C27.7149846,17.297 27.838,17.437 28.007,17.437 L30.763,17.437 C30.8412394,17.4364714 30.9160642,17.404883 30.9710127,17.3491843 C31.0259613,17.2934856 31.0565322,17.2182394 31.056,17.14 L31.056,11.89 C31.056,11.609 31.086,11.328 31.164,11.062 C31.241,10.797 31.349,10.562 31.503,10.359 C31.657,10.156 31.841,9.999 32.057,9.875 C32.272,9.765 32.534,9.703 32.842,9.703 C33.15,9.703 33.382,9.765 33.582,9.875 C33.782,9.984 33.935,10.155 34.043,10.343 C34.151,10.547 34.228,10.765 34.274,11.031 C34.32,11.296 34.351,11.562 34.351,11.859 L34.351,17.156 C34.351,17.312 34.474,17.453 34.644,17.453 L37.4,17.453 C37.5625338,17.4513508 37.6931103,17.3185384 37.692007,17.156 L37.692007,11.109 C37.692007,10.609 37.631,10.093 37.508,9.593 C37.368,9.093 37.168,8.64 36.876,8.25 L36.877,8.25 Z M86.332,7.203 L83.514,7.203 C83.3838641,7.20709497 83.271568,7.29547245 83.237,7.421 L81.528,13.671 L81.482,13.671 L79.68,7.406 C79.6457997,7.28007704 79.5334163,7.19122513 79.403,7.187 L76.493,7.187 C76.3625837,7.19122513 76.2502003,7.28007704 76.216,7.406 L74.476,13.671 L74.415,13.671 L72.736,7.421 C72.701432,7.29547245 72.5891359,7.20709497 72.459,7.203 L69.503,7.203 C69.303,7.203 69.164,7.406 69.226,7.593 L72.506,17.233 C72.5451657,17.35284 72.655943,17.4347189 72.782,17.437 L75.708,17.437 C75.831,17.437 75.954,17.359 75.985,17.234 L77.864,11.078 L77.91,11.078 L79.834,17.25 C79.865,17.375 79.988,17.453 80.112,17.453 L83.037,17.453 C83.1631619,17.4512866 83.2743693,17.369788 83.314,17.25 L86.609,7.609 C86.671,7.406 86.532,7.203 86.332,7.203 L86.332,7.203 Z M100.251,3.203 L103.053,3.203 C103.207,3.203 103.331,3.343 103.346007,3.5 L103.346007,17.14 C103.346532,17.2182394 103.315961,17.2934856 103.261013,17.3491843 C103.206064,17.404883 103.131239,17.4364714 103.053,17.437 L100.251,17.437 C100.088466,17.4353508 99.9578897,17.3025384 99.958993,17.14 L99.958993,3.5 C99.958993,3.328 100.097,3.203 100.251,3.203 Z M108.596,3.203 L105.794,3.203 C105.715851,3.20352755 105.641128,3.23514807 105.586338,3.2908761 C105.531548,3.34660413 105.501201,3.42185333 105.501985,3.5 L105.501985,17.14 C105.501985,17.297 105.625,17.437 105.794,17.437 L108.596,17.437 C108.674239,17.4364714 108.749064,17.404883 108.804013,17.3491843 C108.858961,17.2934856 108.889532,17.2182394 108.889007,17.14 L108.889007,3.5 C108.884418,3.33944485 108.756478,3.20975838 108.596,3.203 L108.596,3.203 Z M95.231,6.859 L97.541,6.859 C97.695,6.859 97.8180153,6.984 97.8180153,7.14 L97.8180153,17.14 C97.8187997,17.2183191 97.7883154,17.2937198 97.7333093,17.3494769 C97.6783032,17.4052339 97.6033227,17.4367377 97.525,17.437 L95.478,17.437 C95.3001428,17.4435824 95.1409557,17.3273965 95.093,17.156 L94.846,16.375 C94.523,16.703 94.092,17 93.553,17.281 C93.091,17.515 92.553,17.656 91.936,17.703 C91.766,17.718 91.597,17.733 91.428,17.733 C90.658,17.733 89.996,17.578 89.396,17.281 C88.8129563,16.9917682 88.2982031,16.5816702 87.886,16.078 C87.4660449,15.5644449 87.14771,14.9756271 86.948,14.343 C86.7319346,13.677054 86.622583,12.9811188 86.6239864,12.281 C86.6239864,11.562 86.747,10.891 86.963,10.234 C87.1748771,9.60801449 87.498438,9.02560502 87.918,8.515 C88.318,8.015 88.826,7.625 89.411,7.343 C89.996,7.046 90.658,6.906 91.381,6.906 C92.213,6.906 92.906,7.062 93.476,7.343 C93.922,7.562 94.276,7.812 94.569,8.062 L94.846,7.14 C94.9031253,6.97517305 95.056604,6.8631535 95.231,6.859 L95.231,6.859 Z M89.965,13.249 C90.073,13.578 90.227,13.859 90.427,14.109 C90.627,14.359 90.889,14.562 91.182,14.719 C91.474,14.859 91.828,14.937 92.213,14.937 C92.598,14.937 92.937,14.874 93.23,14.718 C93.522,14.578 93.768,14.374 93.984,14.124 C94.2,13.874 94.369,13.594 94.477,13.281 C94.585,12.968 94.647,12.641 94.647,12.312 C94.647,11.984 94.584,11.656 94.477,11.343 C94.361992,11.0356147 94.1952545,10.7501655 93.984,10.499 C93.784,10.249 93.522,10.062 93.23,9.906 C92.9114032,9.7585806 92.5640357,9.68377876 92.213,9.687 C91.828,9.687 91.474,9.75 91.182,9.906 C90.874,10.046 90.627,10.249 90.427,10.484 C90.212,10.718 90.073,10.999 89.965,11.312 C89.858,11.625 89.811,11.952 89.811,12.281 C89.811,12.609 89.858,12.921 89.965,13.249 L89.965,13.249 Z M56.877,6.953 L56.847,6.953 L56.877,6.921 L56.43,6.921 C56,6.921 55.599,7 55.23,7.171 C55.075,7.218 54.937,7.281 54.798,7.359 C54.259,7.625 53.844,7.921 53.536,8.249 L53.336,7.531 C53.2900879,7.35600142 53.1319211,7.23398701 52.951,7.234 L50.749,7.234 C50.6706773,7.23426232 50.5956968,7.26576608 50.5406907,7.32152312 C50.4856846,7.37728017 50.4552003,7.4526809 50.4559847,7.531 L50.4559847,17.156 C50.4559847,17.312 50.579,17.453 50.749,17.453 L53.489,17.453 C53.5673227,17.4527377 53.6423032,17.4212339 53.6973093,17.3654769 C53.7523154,17.3097198 53.7827997,17.2343191 53.782,17.156 L53.782,12.203 C53.782,12 53.828,11.765 53.905,11.484 C53.982,11.218 54.121,10.953 54.305,10.718 C54.49,10.484 54.737,10.281 55.029,10.125 C55.337,9.968 55.707,9.875 56.153,9.875 C56.292,9.875 56.43,9.875 56.569,9.89 L56.708,9.906 C56.8689392,9.91630006 57.0102484,9.79992772 57.031,9.64 L57.139,7.265 C57.1473464,7.18852809 57.1240902,7.11196568 57.0746208,7.0530556 C57.0251514,6.99414552 56.9537633,6.95800162 56.877,6.953 L56.877,6.953 Z M46.299,7.266 C46.9074448,7.50648247 47.4544459,7.8799192 47.9,8.359 C48.3511897,8.86381338 48.6969589,9.45369491 48.917,10.094 C49.163,10.781 49.286,11.563 49.286,12.438 L49.286,12.844 C49.286,12.984 49.286,13.109 49.271,13.234 L41.957,13.234 C41.972,13.516 42.065,13.781 42.203,14.016 C42.3544535,14.2472098 42.5418055,14.4527907 42.758,14.625 C42.988,14.797 43.235,14.938 43.512,15.031 C43.789,15.125 44.082,15.171 44.374,15.171 C44.898,15.171 45.344,15.078 45.714,14.875 C45.976,14.735 46.207,14.562 46.391,14.359 C46.514,14.219 46.731,14.219 46.869,14.359 L48.301,15.829 C48.439,15.969 48.439,16.187 48.301,16.329 C47.946,16.687 47.531,16.969 47.053,17.203 C46.268,17.578 45.375,17.766007 44.343,17.766007 C43.6145082,17.7670691 42.8910449,17.6453649 42.203,17.406 C41.5490702,17.1785542 40.9472581,16.822567 40.433,16.359 C39.9172972,15.8821637 39.5080445,15.3018496 39.232,14.656 C38.939,13.984 38.801,13.219 38.801,12.359 C38.801,11.531 38.955,10.766 39.231,10.094 C39.4902982,9.44587109 39.8839366,8.86001442 40.386,8.375 C40.8854015,7.90292988 41.4710745,7.53149436 42.111,7.281 C42.7924914,7.01415259 43.5191859,6.88171762 44.251,6.891 C44.991,6.891 45.683,7.016 46.299,7.266 L46.299,7.266 Z M42.172,10.406 C42.0518814,10.6385954 41.9836459,10.8944786 41.972,11.156 L46.252,11.156 C46.252,10.625 46.083,10.172 45.76,9.781 C45.421,9.391 44.929,9.203 44.267,9.203 C43.6801263,9.19232082 43.1098607,9.39807207 42.665,9.781 C42.4591707,9.95270594 42.2915748,10.1656073 42.173,10.406 L42.172,10.406 Z M119.236,8.359 C118.790579,7.87976457 118.24354,7.50630227 117.635,7.266 C116.982865,7.01023621 116.28745,6.88290192 115.587,6.891 C114.855182,6.88166712 114.128478,7.01410385 113.447,7.281 C112.807131,7.53160618 112.221478,7.90302882 111.722,8.375 C111.220471,8.86046141 110.826914,9.44619659 110.567,10.094 C110.276628,10.8135593 110.130197,11.5830824 110.136,12.359 C110.136,13.219 110.275,13.984 110.567,14.656 C110.843281,15.3017173 111.252501,15.8819849 111.768,16.359 C112.282777,16.822376 112.884875,17.1783308 113.539,17.406 C114.217,17.641 114.925,17.766 115.679,17.766 C116.711,17.766 117.604,17.578 118.389,17.203 C118.851501,16.9845417 119.273245,16.6886111 119.636,16.328 C119.702687,16.2618999 119.740202,16.1718958 119.740202,16.078 C119.740202,15.9841042 119.702687,15.8941001 119.636,15.828 L118.204,14.359 C118.066,14.219 117.85,14.219 117.727,14.359 C117.531992,14.5678867 117.303107,14.7423398 117.05,14.875 C116.68,15.078 116.234,15.172 115.71,15.172 C115.418,15.172 115.125,15.125 114.848,15.032 C114.576406,14.9370857 114.321576,14.799714 114.093,14.625 C113.877198,14.4522847 113.690201,14.2463858 113.539,14.015 C113.395694,13.7784635 113.311325,13.5109537 113.293,13.235 L120.606,13.235 C120.622,13.109 120.622,12.985 120.622,12.844 L120.622,12.438 C120.622,11.562 120.499,10.781 120.252,10.094 C120.038514,9.450924 119.692381,8.85983894 119.236,8.359 L119.236,8.359 Z M113.324,11.156 C113.339,10.891 113.401,10.641 113.524,10.406 C113.647,10.172 113.801,9.953 114.016,9.781 C114.460668,9.39774225 115.031064,9.19194397 115.618,9.203 C116.28,9.203 116.773,9.391 117.111,9.781 C117.435,10.171 117.604,10.625 117.604,11.156 L113.324,11.156 Z M131.923,15.688 L132.416,15.688 L132.555,17.454 L132.216,17.454 L132.154,16.422 C132.139,16.297 132.139,16.125 132.139,15.938 L132.124,15.938 C132.095,16.081 132.041,16.265 131.997,16.414 L131.985,16.454 L131.677,17.422 L131.323,17.422 L131.015,16.422 C131.002,16.361 130.982,16.288 130.962,16.212 C130.935564,16.1161086 130.912219,16.019392 130.892,15.922 L130.876,15.922 C130.876,16 130.873,16.082 130.869,16.164 C130.864387,16.2449242 130.86172,16.3259476 130.861,16.407 L130.799,17.438 L130.476,17.438 L130.599,15.704 L131.107,15.704 L131.4,16.547 L131.429,16.667 L131.43,16.672 C131.452,16.765 131.476,16.867 131.508,16.985 C131.554,16.829 131.6,16.672 131.631,16.547 L131.923,15.688 L131.923,15.688 Z M129.152,17.438 L129.491,17.438 L129.491,15.985 L130.045,15.985 L130.045,15.689 L128.613,15.689 L128.613,15.985 L129.152,15.985 L129.152,17.439 L129.152,17.438 Z" id="Shape"></path>
            </g>
        </g>
    </g>
</svg>